#!OML:ASF H:\Not Pregnant\Project 1\Capture day 1\Session 1\non-pregnant.ASF
:FULLY-SPECIFIED
:DEGREES
1177
root 5.68941 15.7907 24.6433 -171.822 175.036 -184.991
lowerback -5.82179 0.655043 4.81286
upperback -6.71827 0.740054 -0.172155
thorax -3.64475 0.165337 -2.85521
lowerneck 20.3583 -10.498 -30.8318
upperneck -7.96087 -20.6449 44.1285
head 3.64222 -13.034 23.137
rclavicle 1.52567e-014 3.33958e-014
rhumerus -40.395 -22.5827 -76.3316
rradius 20.6342
rwrist 33.121
rhand -10.3447 -3.78779
rfingers 7.12502
rthumb 15.6517 -33.1747
lclavicle 1.52567e-014 3.33958e-014
lhumerus -40.5637 3.48776 85.8006
lradius 23.0395
lwrist 21.8846
lhand -13.6092 -9.33215
lfingers 7.12502
lthumb 12.5059 20.2736
rfemur -7.40682 -2.8869 27.7953
rtibia 60.9312
rfoot -34.4903 0.66454
rtoes -36.0216
lfemur -33.0839 -3.70354 -17.5607
ltibia 35.4395
lfoot -9.5155 -12.6781
ltoes -13.7593
1178
root 5.72375 15.7835 24.7536 -171.77 175.153 -184.684
lowerback -5.75442 0.685544 4.71098
upperback -6.77578 0.786054 -0.28191
thorax -3.73814 0.186631 -2.91189
lowerneck 20.4141 -10.4647 -30.8738
upperneck -8.10211 -20.586 44.1541
head 3.5787 -13.0126 23.1936
rclavicle 1.09332e-015 1.15295e-014
rhumerus -40.8516 -23.2982 -75.5737
rradius 20.1205
rwrist 34.2856
rhand -9.93713 -3.85403
rfingers 7.12502
rthumb 16.0442 -33.2097
lclavicle 1.09332e-015 1.15295e-014
lhumerus -40.5396 3.57668 85.6901
lradius 22.7019
lwrist 21.2823
lhand -13.4241 -8.37719
lfingers 7.12502
lthumb 12.6844 21.2176
rfemur -7.93189 -3.05775 27.0483
rtibia 62.3972
rfoot -33.0534 2.24965
rtoes -36.4074
lfemur -32.7076 -3.69608 -18.0045
ltibia 35.5955
lfoot -10.038 -12.6551
ltoes -13.5685
1179
root 5.75764 15.7782 24.862 -171.738 175.317 -184.352
lowerback -5.64993 0.718272 4.57726
upperback -6.82431 0.836894 -0.398407
thorax -3.84241 0.211471 -2.95814
lowerneck 20.4347 -10.4468 -30.905
upperneck -8.20439 -20.5467 44.1575
head 3.53473 -12.995 23.2172
rclavicle 1.54555e-014 7.95139e-016
rhumerus -41.2733 -23.9056 -74.8827
rradius 19.6512
rwrist 35.4655
rhand -9.47015 -3.86181
rfingers 7.12502
rthumb 16.4938 -33.1807
lclavicle 1.54555e-014 7.95139e-016
lhumerus -40.5886 3.55849 85.6368
lradius 22.6369
lwrist 21.2071
lhand -13.2379 -7.34556
lfingers 7.12502
lthumb 12.8639 22.238
rfemur -8.547 -3.20809 26.2492
rtibia 63.9547
rfoot -31.368 3.94553
rtoes -36.6447
lfemur -32.26 -3.6589 -18.4782
ltibia 35.6598
lfoot -10.5166 -12.6277
ltoes -13.3354
1180
root 5.7908 15.7748 24.9684 -171.721 175.536 -183.99
lowerback -5.49939 0.760949 4.40524
upperback -6.86318 0.902991 -0.526112
thorax -3.96105 0.245243 -2.99494
lowerneck 20.4309 -10.438 -30.9262
upperneck -8.30355 -20.5129 44.1644
head 3.4983 -12.9783 23.2343
rclavicle 4.96962e-015 1.74931e-014
rhumerus -41.6449 -24.4133 -74.2674
rradius 19.2257
rwrist 36.6495
rhand -8.92486 -3.81627
rfingers 7.12502
rthumb 17.0188 -33.0908
lclavicle 4.96962e-015 1.74931e-014
lhumerus -40.6907 3.41333 85.646
lradius 22.822
lwrist 21.6717
lhand -13.0597 -6.27528
lfingers 7.12502
lthumb 13.0356 23.2974
rfemur -9.25866 -3.32823 25.391
rtibia 65.5845
rfoot -29.4049 5.76422
rtoes -36.5721
lfemur -31.7474 -3.58405 -18.9924
ltibia 35.6317
lfoot -10.9627 -12.582
ltoes -13.0844
1181
root 5.82296 15.7726 25.0726 -171.72 175.816 -183.605
lowerback -5.30025 0.815257 4.19941
upperback -6.88835 0.986066 -0.661246
thorax -4.09131 0.288905 -3.02107
lowerneck 20.3931 -10.4414 -30.9356
upperneck -8.40652 -20.485 44.1805
head 3.4708 -12.9626 23.2466
rclavicle 8.00108e-015 1.66979e-014
rhumerus -41.9473 -24.8087 -73.7517
rradius 18.8537
rwrist 37.8173
rhand -8.31097 -3.72089
rfingers 7.12502
rthumb 17.6096 -32.9434
lclavicle 8.00108e-015 1.66979e-014
lhumerus -40.8277 3.16792 85.6992
lradius 23.2189
lwrist 22.5878
lhand -12.9015 -5.25978
lfingers 7.12502
lthumb 13.1881 24.3031
rfemur -10.0586 -3.40756 24.4909
rtibia 67.2621
rfoot -27.1572 7.62399
rtoes -36.1892
lfemur -31.1762 -3.46947 -19.5356
ltibia 35.5246
lfoot -11.3878 -12.4986
ltoes -12.8248
1182
root 5.85435 15.7706 25.1744 -171.731 176.15 -183.198
lowerback -5.05466 0.879415 3.96158
upperback -6.90297 1.08307 -0.804107
thorax -4.23588 0.340799 -3.03822
lowerneck 20.3289 -10.4546 -30.9347
upperneck -8.52293 -20.4596 44.2078
head 3.44715 -12.9471 23.2585
rclavicle 1.01877e-014 3.97569e-015
rhumerus -42.1808 -25.0926 -73.3403
rradius 18.5444
rwrist 38.9649
rhand -7.63222 -3.56284
rfingers 7.12502
rthumb 18.2627 -32.7255
lclavicle 1.01877e-014 3.97569e-015
lhumerus -41.0003 2.85424 85.7739
lradius 23.787
lwrist 23.7907
lhand -12.77 -4.39922
lfingers 7.12502
lthumb 13.3149 25.1554
rfemur -10.9431 -3.45135 23.5486
rtibia 68.9681
rfoot -24.6304 9.47731
rtoes -35.4716
lfemur -30.5619 -3.32152 -20.1114
ltibia 35.3524
lfoot -11.7933 -12.3684
ltoes -12.5861
1183
root 5.88475 15.7685 25.2735 -171.753 176.535 -182.788
lowerback -4.78219 0.953496 3.70862
upperback -6.89486 1.19239 -0.947885
thorax -4.37125 0.40027 -3.04865
lowerneck 20.2359 -10.478 -30.9202
upperneck -8.66879 -20.4314 44.254
head 3.42263 -12.93 23.2757
rclavicle 1.31695e-014 7.15625e-015
rhumerus -42.3152 -25.2457 -73.0684
rradius 18.3113
rwrist 40.0505
rhand -6.8793 -3.3627
rfingers 7.12502
rthumb 18.9869 -32.456
lclavicle 1.31695e-014 7.15625e-015
lhumerus -41.1681 2.51406 85.845
lradius 24.4524
lwrist 25.0647
lhand -12.6441 -3.8018
lfingers 7.12502
lthumb 13.4362 25.7449
rfemur -11.9066 -3.45306 22.5961
rtibia 70.6827
rfoot -21.8457 11.2369
rtoes -34.5278
lfemur -29.9178 -3.14511 -20.6944
ltibia 35.1315
lfoot -12.1782 -12.1848
ltoes -12.3852
1184
root 5.91388 15.7664 25.3701 -171.791 176.965 -182.373
lowerback -4.47242 1.0321 3.43035
upperback -6.87678 1.30737 -1.08878
thorax -4.51776 0.463935 -3.04333
lowerneck 20.1335 -10.5049 -30.8992
upperneck -8.83523 -20.3996 44.3108
head 3.3944 -12.9117 23.2983
rclavicle 4.96962e-016 -1.19271e-015
rhumerus -42.3729 -25.2563 -72.9329
rradius 18.1588
rwrist 41.0365
rhand -6.0844 -3.12452
rfingers 7.12502
rthumb 19.7512 -32.141
lclavicle 4.96962e-016 -1.19271e-015
lhumerus -41.3435 2.17397 85.9006
lradius 25.1557
lwrist 26.2718
lhand -12.5049 -3.54433
lfingers 7.12502
lthumb 13.5704 25.9934
rfemur -12.9346 -3.41035 21.6422
rtibia 72.3894
rfoot -18.8489 12.8303
rtoes -33.446
lfemur -29.2466 -2.93761 -21.2855
ltibia 34.8691
lfoot -12.5452 -11.9611
ltoes -12.2363
1185
root 5.94227 15.7642 25.4643 -171.84 177.429 -181.959
lowerback -4.14292 1.11228 3.14
upperback -6.8447 1.42284 -1.22569
thorax -4.66182 0.528973 -3.02837
lowerneck 20.0219 -10.5358 -30.8694
upperneck -9.02251 -20.3631 44.3721
head 3.36019 -12.8911 23.3208
rclavicle 1.6201e-014 8.34896e-015
rhumerus -42.3493 -25.1201 -72.9412
rradius 18.0934
rwrist 41.8901
rhand -5.25347 -2.83707
rfingers 7.12502
rthumb 20.5499 -31.7694
lclavicle 1.6201e-014 8.34896e-015
lhumerus -41.5321 1.83409 85.9429
lradius 25.8977
lwrist 27.3571
lhand -12.3411 -3.61751
lfingers 7.12502
lthumb 13.7283 25.9096
rfemur -14.0216 -3.33307 20.6996
rtibia 74.0738
rfoot -15.7056 14.1991
rtoes -32.301
lfemur -28.5514 -2.70356 -21.8788
ltibia 34.565
lfoot -12.8901 -11.7085
ltoes -12.1321
1186
root 5.96971 15.7631 25.556 -171.894 177.915 -181.538
lowerback -3.79065 1.19062 2.82454
upperback -6.80943 1.53424 -1.35813
thorax -4.81734 0.593345 -2.99635
lowerneck 19.9258 -10.5564 -30.8372
upperneck -9.23705 -20.3077 44.4443
head 3.30914 -12.864 23.3609
rclavicle -8.15017e-015 -5.96354e-015
rhumerus -42.2557 -24.8237 -73.092
rradius 18.1067
rwrist 42.5597
rhand -4.43355 -2.51546
rfingers 7.12502
rthumb 21.3376 -31.3607
lclavicle -8.15017e-015 -5.96354e-015
lhumerus -41.729 1.48832 85.9845
lradius 26.6447
lwrist 28.3477
lhand -12.1725 -3.9694
lfingers 7.12502
lthumb 13.8907 25.5467
rfemur -15.172 -3.23155 19.7704
rtibia 75.7268
rfoot -12.5309 15.2942
rtoes -31.0521
lfemur -27.8411 -2.43695 -22.4813
ltibia 34.2113
lfoot -13.2025 -11.4587
ltoes -12.0764
1187
root 5.99656 15.7636 25.6466 -171.962 178.406 -181.098
lowerback -3.43824 1.25868 2.47534
upperback -6.75712 1.62899 -1.49149
thorax -4.95801 0.651744 -2.94715
lowerneck 19.8248 -10.5814 -30.7908
upperneck -9.46852 -20.2485 44.5175
head 3.25099 -12.835 23.3974
rclavicle -1.63997e-014 -1.27222e-014
rhumerus -42.0935 -24.3879 -73.3841
rradius 18.2014
rwrist 43.0082
rhand -3.66661 -2.18475
rfingers 7.12502
rthumb 22.0741 -30.9448
lclavicle -1.63997e-014 -1.27222e-014
lhumerus -41.9171 1.14283 86.0236
lradius 27.3943
lwrist 29.2814
lhand -12.0304 -4.56613
lfingers 7.12502
lthumb 14.0277 24.9405
rfemur -16.3484 -3.13448 18.8462
rtibia 77.3303
rfoot -9.55763 16.1102
rtoes -29.8497
lfemur -27.0992 -2.14442 -23.1079
ltibia 33.8039
lfoot -13.4763 -11.2443
ltoes -11.9752
1188
root 6.0226 15.7657 25.7357 -172.031 178.889 -180.636
lowerback -3.09439 1.31677 2.09074
upperback -6.69099 1.70708 -1.62664
thorax -5.08238 0.704179 -2.88034
lowerneck 19.7265 -10.604 -30.734
upperneck -9.73017 -20.1751 44.5987
head 3.17827 -12.8006 23.4424
rclavicle -3.97569e-015 1.07344e-014
rhumerus -41.8628 -23.8573 -73.7806
rradius 18.347
rwrist 43.2587
rhand -2.9718 -1.84896
rfingers 7.12502
rthumb 22.741 -30.5287
lclavicle -3.97569e-015 1.07344e-014
lhumerus -42.0927 0.785718 86.0712
lradius 28.1471
lwrist 30.1939
lhand -11.9582 -5.33522
lfingers 7.12502
lthumb 14.0973 24.1666
rfemur -17.5641 -3.05942 17.9342
rtibia 78.8781
rfoot -6.99888 16.6622
rtoes -28.5632
lfemur -26.3462 -1.82418 -23.7575
ltibia 33.345
lfoot -13.7067 -11.0884
ltoes -11.8215
